<?xml version="1.0" encoding="UTF-8" standalone="no"?><!-- Generator: Gravit.io --><svg xmlns="http://www.w3.org/2000/svg" xmlns:xlink="http://www.w3.org/1999/xlink" style="isolation:isolate" viewBox="0 0 500 310" width="500pt" height="310pt"><defs><clipPath id="_clipPath_E25DUWELjOD1qaJJ9hgHHrn6phJO5OK4"><rect width="500" height="310"/></clipPath></defs><g clip-path="url(#_clipPath_E25DUWELjOD1qaJJ9hgHHrn6phJO5OK4)"><path d=" M 195.2 227.035" fill="rgb(255,255,255)"/><path d=" M 246.015 291.892" fill="rgb(38,50,56)"/><g/><g><path d=" M 175 29 L 267 29 L 267 121 L 175 121 L 175 29 Z " fill="none"/></g><g><path d=" M 312 128.5 C 297.488 128.5 285.75 140.237 285.75 154.75 C 285.75 174.438 312 203.5 312 203.5 C 312 203.5 338.25 174.438 338.25 154.75 C 338.25 140.237 326.513 128.5 312 128.5 Z  M 312 164.125 C 306.822 164.125 302.625 159.928 302.625 154.75 C 302.625 149.572 306.822 145.375 312 145.375 C 317.178 145.375 321.375 149.572 321.375 154.75 C 321.375 159.928 317.178 164.125 312 164.125 Z " fill="rgb(158,158,158)" fill-opacity="0.25882352941176473"/><path d=" M 267 121 L 357 121 L 357 211 L 267 211 L 267 121 Z " fill="none"/></g><g><path d=" M 109.5 111 L 223.5 111 L 223.5 225 L 109.5 225 L 109.5 111 Z " fill="none"/><g opacity="0.44"><path d=" M 140.945 162.253 C 147.785 175.695 158.805 186.668 172.248 193.555 L 182.698 183.105 C 183.98 181.823 185.88 181.395 187.543 181.965 C 192.863 183.722 198.61 184.672 204.5 184.672 C 207.113 184.672 209.25 186.81 209.25 189.422 L 209.25 206 C 209.25 208.612 207.113 210.75 204.5 210.75 C 159.898 210.75 123.75 174.603 123.75 130 C 123.75 127.388 125.888 125.25 128.5 125.25 L 145.125 125.25 C 147.738 125.25 149.875 127.388 149.875 130 C 149.875 135.938 150.825 141.638 152.583 146.958 C 153.105 148.62 152.725 150.473 151.395 151.803 L 140.945 162.253 Z " fill="rgb(162,162,162)" fill-opacity="0.5882352941176471"/></g></g><g><path d=" M 182.833 18 L 291 18 L 291 126.167 L 182.833 126.167 L 182.833 18 Z " fill="none"/><g opacity="0.32"><path d=" M 272.972 36.028 L 200.861 36.028 C 195.903 36.028 191.892 40.084 191.892 45.042 L 191.847 99.125 C 191.847 104.083 195.903 108.139 200.861 108.139 L 272.972 108.139 C 277.93 108.139 281.986 104.083 281.986 99.125 L 281.986 45.042 C 281.986 40.084 277.93 36.028 272.972 36.028 Z  M 272.972 99.125 L 200.861 99.125 L 200.861 54.056 L 236.917 76.59 L 272.972 54.056 L 272.972 99.125 Z  M 236.917 67.576 L 200.861 45.042 L 272.972 45.042 L 236.917 67.576 Z " fill="rgb(162,162,162)"/></g></g></g></svg>